# xmcd CD database file
#
# Track frame offsets:
#	150
#	29765
#	53450
#	73547
#	84532
#	99534
#	125313
#	151011
#	178264
#	202182
#	223875
#	239891
#	260672
#	278085
#
# Disc length: 3891 seconds
#
# Revision: 0
# Processed by: cddbd v1.5.2PL0 Copyright (c) Steve Scherf et al.
# Submitted via: CDex 1.51
#
DISCID=d40f310e
DTITLE=Deak Harp - Clarksdale Breakdown
DYEAR=2014
DGENRE=Blues
TTITLE0=Deak Harp - Mad Dog 20/20
TTITLE1=Deak Harp -  If You're Ever In Clarksdale
TTITLE2=Deak Harp - It's Alright
TTITLE3=Deak Harp - Juke Jump
TTITLE4=Deak Harp - Delta Wind
TTITLE5=Deak Harp - Dirty Rosie
TTITLE6=Deak Harp - Up All Night Blues
TTITLE7=Deak Harp - Bubba Blue
TTITLE8=Deak Harp - Under The Bridge
TTITLE9=Deak Harp - No Hurry
TTITLE10=Deak Harp - Clarksdale Breakdown
TTITLE11=Deak Harp - It's OK To Smile
TTITLE12=Deak Harp - Yellowhammer Breakdown
TTITLE13=Deak Harp - Ridin' The Rails
EXTD=YEAR: 2014
EXTT0=
EXTT1=
EXTT2=
EXTT3=
EXTT4=
EXTT5=
EXTT6=
EXTT7=
EXTT8=
EXTT9=
EXTT10=
EXTT11=
EXTT12=
EXTT13=
PLAYORDER=
